<?xml version="1.0" standalone="no"?>
<!DOCTYPE svg PUBLIC "-//W3C//DTD SVG 20010904//EN"
 "http://www.w3.org/TR/2001/REC-SVG-20010904/DTD/svg10.dtd">
<svg version="1.0" xmlns="http://www.w3.org/2000/svg"
 width="700.000000pt" height="700.000000pt" viewBox="0 0 700.000000 700.000000"
 preserveAspectRatio="xMidYMid meet">
<metadata>
Created by potrace 1.14, written by Peter Selinger 2001-2017
</metadata>
<g transform="translate(0.000000,700.000000) scale(0.100000,-0.100000)"
fill="#000000" stroke="none">
<path d="M3692 5830 c-119 -31 -206 -83 -302 -180 -122 -121 -182 -245 -198
-407 l-7 -67 -100 -28 c-177 -51 -352 -137 -518 -255 -109 -77 -286 -256 -370
-373 -77 -108 -193 -336 -231 -455 -83 -257 -105 -548 -61 -799 8 -45 15 -86
15 -92 0 -6 -48 -51 -107 -100 -137 -112 -443 -417 -512 -509 -28 -38 -71
-108 -94 -154 -38 -76 -42 -92 -42 -156 0 -61 4 -77 27 -112 105 -159 465
-129 1050 89 l187 69 68 -54 c37 -30 96 -73 130 -96 l62 -41 -19 -46 c-34 -79
-50 -159 -50 -256 0 -181 56 -317 184 -443 138 -138 276 -191 471 -183 133 6
220 33 324 102 116 77 199 187 248 328 21 59 26 93 27 180 l1 107 70 17 c319
77 586 232 821 476 363 377 528 918 438 1436 l-16 92 34 28 c258 215 485 435
587 572 115 153 162 290 132 383 -17 49 -79 103 -142 121 -68 21 -229 21 -345
1 -170 -30 -379 -91 -631 -186 -156 -59 -131 -63 -257 35 -56 43 -75 64 -71
75 45 117 45 328 1 449 -66 178 -175 301 -339 384 -135 68 -317 86 -465 48z
m339 -154 c178 -61 305 -207 345 -396 17 -79 14 -179 -7 -238 l-11 -31 -80 40
c-236 119 -590 186 -843 161 -49 -5 -93 -6 -97 -3 -4 3 -1 36 7 73 65 314 384
496 686 394z m-348 -616 c605 -58 1099 -435 1307 -1001 17 -45 29 -83 28 -84
-2 -1 -41 -31 -88 -67 -366 -281 -920 -638 -1430 -923 -198 -110 -702 -362
-890 -445 l-144 -63 -59 64 c-164 177 -289 433 -348 709 -33 150 -33 438 -1
586 46 213 140 429 259 597 77 108 246 277 358 356 160 112 384 209 573 246
162 32 284 39 435 25z m2055 -166 c49 -10 74 -40 67 -77 -22 -103 -151 -274
-356 -472 -118 -114 -290 -265 -302 -265 -3 0 -17 31 -32 69 -57 150 -153 316
-258 446 -31 39 -57 72 -57 76 0 7 262 101 400 142 107 33 275 71 345 80 53 7
161 7 193 1z m-674 -1116 c14 -79 18 -310 7 -404 -45 -363 -201 -677 -464
-930 -302 -291 -691 -439 -1112 -421 -220 9 -398 54 -604 153 -106 50 -266
149 -290 178 -9 10 24 29 142 81 688 309 1603 847 2177 1279 69 52 128 95 131
95 4 1 9 -14 13 -31z m-3059 -863 c64 -157 146 -296 253 -428 30 -37 52 -70
49 -73 -25 -25 -433 -158 -613 -200 -149 -34 -314 -40 -357 -11 -81 53 19 233
273 488 111 111 349 324 355 317 2 -2 19 -43 40 -93z m963 -946 c188 -71 366
-103 584 -104 l168 0 5 -25 c7 -33 -9 -143 -29 -200 -66 -182 -253 -311 -451
-310 -222 1 -421 163 -466 378 -15 75 -6 193 21 264 l21 58 37 -16 c20 -9 70
-29 110 -45z"/>
<path d="M3610 4838 c0 -13 3 -46 6 -74 l6 -51 107 -6 c292 -16 525 -149 707
-402 l20 -29 60 34 c32 18 61 35 63 36 11 9 -83 130 -163 210 -96 95 -160 141
-272 197 -129 65 -309 107 -455 107 -75 0 -79 -1 -79 -22z"/>
<path d="M4573 4217 l-62 -32 39 -83 39 -83 63 32 c35 17 65 33 67 35 6 5 -71
164 -79 164 -3 -1 -33 -15 -67 -33z"/>
<path d="M1524 5029 c-51 -15 -125 -72 -161 -123 -40 -59 -55 -112 -55 -195 1
-165 144 -304 312 -305 158 -1 277 91 316 246 36 141 -34 290 -168 358 -53 26
-71 30 -137 29 -42 0 -90 -5 -107 -10z m191 -158 c94 -54 110 -188 31 -267
-124 -124 -332 -4 -286 166 13 48 67 106 113 119 41 13 103 5 142 -18z"/>
</g>
</svg>
