<svg id="visual" viewBox="0 0 900 600" width="900" height="600" xmlns="http://www.w3.org/2000/svg" xmlns:xlink="http://www.w3.org/1999/xlink" version="1.1"><path d="M0 431L25 439.3C50 447.7 100 464.3 150 470.3C200 476.3 250 471.7 300 468.3C350 465 400 463 450 462.8C500 462.7 550 464.3 600 451.8C650 439.3 700 412.7 750 396.8C800 381 850 376 875 373.5L900 371L900 601L875 601C850 601 800 601 750 601C700 601 650 601 600 601C550 601 500 601 450 601C400 601 350 601 300 601C250 601 200 601 150 601C100 601 50 601 25 601L0 601Z" fill="#976bff"></path><path d="M0 453L25 455.2C50 457.3 100 461.7 150 461.5C200 461.3 250 456.7 300 453C350 449.3 400 446.7 450 456.8C500 467 550 490 600 502.7C650 515.3 700 517.7 750 504.2C800 490.7 850 461.3 875 446.7L900 432L900 601L875 601C850 601 800 601 750 601C700 601 650 601 600 601C550 601 500 601 450 601C400 601 350 601 300 601C250 601 200 601 150 601C100 601 50 601 25 601L0 601Z" fill="#4e409c"></path><path d="M0 517L25 520.7C50 524.3 100 531.7 150 531.3C200 531 250 523 300 516.5C350 510 400 505 450 507.3C500 509.7 550 519.3 600 522.7C650 526 700 523 750 517.8C800 512.7 850 505.3 875 501.7L900 498L900 601L875 601C850 601 800 601 750 601C700 601 650 601 600 601C550 601 500 601 450 601C400 601 350 601 300 601C250 601 200 601 150 601C100 601 50 601 25 601L0 601Z" fill="#171740"></path></svg>