<svg xmlns="http://www.w3.org/2000/svg" version="1.1" viewBox="0 385.04 900 215.96"><path d="M0 449L21.5 434.7C43 420.3 86 391.7 128.8 397.8C171.7 404 214.3 445 257.2 462.5C300 480 343 474 385.8 453.5C428.7 433 471.3 398 514.2 388.2C557 378.3 600 393.7 642.8 406.7C685.7 419.7 728.3 430.3 771.2 426.5C814 422.7 857 404.3 878.5 395.2L900 386L900 601L878.5 601C857 601 814 601 771.2 601C728.3 601 685.7 601 642.8 601C600 601 557 601 514.2 601C471.3 601 428.7 601 385.8 601C343 601 300 601 257.2 601C214.3 601 171.7 601 128.8 601C86 601 43 601 21.5 601L0 601Z" fill="#a178ff"></path><path d="M0 466L21.5 474.7C43 483.3 86 500.7 128.8 509.8C171.7 519 214.3 520 257.2 516C300 512 343 503 385.8 502C428.7 501 471.3 508 514.2 500.5C557 493 600 471 642.8 457.5C685.7 444 728.3 439 771.2 443C814 447 857 460 878.5 466.5L900 473L900 601L878.5 601C857 601 814 601 771.2 601C728.3 601 685.7 601 642.8 601C600 601 557 601 514.2 601C471.3 601 428.7 601 385.8 601C343 601 300 601 257.2 601C214.3 601 171.7 601 128.8 601C86 601 43 601 21.5 601L0 601Z" fill="#804bff"></path><path d="M0 559L21.5 549.3C43 539.7 86 520.3 128.8 518.2C171.7 516 214.3 531 257.2 533.3C300 535.7 343 525.3 385.8 520.8C428.7 516.3 471.3 517.7 514.2 525.8C557 534 600 549 642.8 549.5C685.7 550 728.3 536 771.2 524.3C814 512.7 857 503.3 878.5 498.7L900 494L900 601L878.5 601C857 601 814 601 771.2 601C728.3 601 685.7 601 642.8 601C600 601 557 601 514.2 601C471.3 601 428.7 601 385.8 601C343 601 300 601 257.2 601C214.3 601 171.7 601 128.8 601C86 601 43 601 21.5 601L0 601Z" fill="#5500ff"></path></svg>